<mxfile host="app.diagrams.net" modified="2023-05-05T06:00:19.243Z" agent="Mozilla/5.0 (Windows NT 10.0; Win64; x64) AppleWebKit/537.36 (KHTML, like Gecko) Chrome/112.0.0.0 Safari/537.36" etag="QuNdOhZ42lZ9TNyroFqT" version="21.2.9" type="github">
  <diagram name="Page-1" id="XrPyDjErHFz2qBEeit3x">
    <mxGraphModel dx="1707" dy="484" grid="1" gridSize="10" guides="1" tooltips="1" connect="1" arrows="1" fold="1" page="1" pageScale="1" pageWidth="827" pageHeight="1169" math="0" shadow="0">
      <root>
        <mxCell id="0" />
        <mxCell id="1" parent="0" />
        <mxCell id="2FAdKUjXJmkJUDS2M4QI-1" value="add file path / seprated" style="rounded=0;whiteSpace=wrap;html=1;" vertex="1" parent="1">
          <mxGeometry x="70" y="570" width="220" height="30" as="geometry" />
        </mxCell>
        <mxCell id="2FAdKUjXJmkJUDS2M4QI-2" value="" style="swimlane;startSize=0;" vertex="1" parent="1">
          <mxGeometry x="321" y="601" width="129" height="119" as="geometry" />
        </mxCell>
        <mxCell id="2FAdKUjXJmkJUDS2M4QI-5" value="File 1" style="text;html=1;align=center;verticalAlign=middle;resizable=0;points=[];autosize=1;strokeColor=none;fillColor=none;" vertex="1" parent="2FAdKUjXJmkJUDS2M4QI-2">
          <mxGeometry x="39.5" y="7" width="50" height="30" as="geometry" />
        </mxCell>
        <mxCell id="2FAdKUjXJmkJUDS2M4QI-8" value="File&amp;nbsp; 4" style="text;html=1;align=center;verticalAlign=middle;resizable=0;points=[];autosize=1;strokeColor=none;fillColor=none;" vertex="1" parent="2FAdKUjXJmkJUDS2M4QI-2">
          <mxGeometry x="34.5" y="85" width="60" height="30" as="geometry" />
        </mxCell>
        <mxCell id="2FAdKUjXJmkJUDS2M4QI-7" value="File 3" style="text;html=1;align=center;verticalAlign=middle;resizable=0;points=[];autosize=1;strokeColor=none;fillColor=none;" vertex="1" parent="2FAdKUjXJmkJUDS2M4QI-2">
          <mxGeometry x="38" y="55" width="50" height="30" as="geometry" />
        </mxCell>
        <mxCell id="2FAdKUjXJmkJUDS2M4QI-6" value="File 2" style="text;html=1;align=center;verticalAlign=middle;resizable=0;points=[];autosize=1;strokeColor=none;fillColor=none;" vertex="1" parent="2FAdKUjXJmkJUDS2M4QI-2">
          <mxGeometry x="39.5" y="29" width="50" height="30" as="geometry" />
        </mxCell>
        <mxCell id="2FAdKUjXJmkJUDS2M4QI-3" value="select file" style="rounded=0;whiteSpace=wrap;html=1;" vertex="1" parent="1">
          <mxGeometry x="321" y="570" width="129" height="30" as="geometry" />
        </mxCell>
        <mxCell id="2FAdKUjXJmkJUDS2M4QI-4" value="" style="triangle;whiteSpace=wrap;html=1;direction=south;" vertex="1" parent="1">
          <mxGeometry x="416" y="575" width="34" height="20" as="geometry" />
        </mxCell>
        <mxCell id="2FAdKUjXJmkJUDS2M4QI-9" value="OR" style="text;html=1;align=center;verticalAlign=middle;resizable=0;points=[];autosize=1;strokeColor=none;fillColor=none;" vertex="1" parent="1">
          <mxGeometry x="281" y="571" width="40" height="30" as="geometry" />
        </mxCell>
        <mxCell id="2FAdKUjXJmkJUDS2M4QI-10" value="&lt;b&gt;File Name :&lt;/b&gt;" style="text;html=1;align=center;verticalAlign=middle;resizable=0;points=[];autosize=1;strokeColor=none;fillColor=none;" vertex="1" parent="1">
          <mxGeometry x="-25" y="571" width="90" height="30" as="geometry" />
        </mxCell>
      </root>
    </mxGraphModel>
  </diagram>
</mxfile>
